<svg width="834" height="1194" viewBox="0 0 834 1194" fill="none" xmlns="http://www.w3.org/2000/svg">
<path d="M0 0V332L41 214L57 0H0Z" fill="#B83456"/>
<path d="M155 378L0 663V331L40 214L56 0H235L155 378Z" fill="#C13752"/>
<path d="M170 673L0 863V662L154 378L234 0H469L341 344L170 673Z" fill="#CB3A4E"/>
<path d="M341 690L703 0H468L340 344L170 672L0 862V1085L341 690Z" fill="#D53C49"/>
<path d="M469 810L93 1194H0V1084L340 690L702 0H834V203L469 810Z" fill="#CB3A4E"/>
<path d="M468 810L92 1194H331L571 943L834 571V202L468 810Z" fill="#C13752"/>
<path d="M570 942L330 1194H580L834 882V570L570 942Z" fill="#B83456"/>
<path d="M578 1195H834V881L578 1195Z" fill="#AE315A"/>
</svg>
