<svg width="1440" height="1024" viewBox="0 0 1440 1024" fill="none" xmlns="http://www.w3.org/2000/svg">
<path d="M741 553L217 1024H37L626 397L1234 0H1440V167L741 553Z" fill="#D53C49"/>
<path d="M0 1024H38L625 398L1236 0H798L407 349L0 898V1024Z" fill="#CB3A4E"/>
<path d="M407 351L0 899V740L241 334L524 0H800L407 351Z" fill="#C13752"/>
<path d="M242 334.5L0 745.5V541L116 334.5L351 0H525L242 334.5Z" fill="#B83456"/>
<path d="M354 -1H195L0 332V543L116.5 335L354 -1Z" fill="#B13258"/>
<path d="M196 -1L0 334V-1H196Z" fill="#B83456"/>
<path d="M741 552L217 1024H403L626 850L1040 635L1440 512V166L741 552Z" fill="#CB3A4E"/>
<path d="M624.5 849.5L401 1024H599L752 936L1021 841L1440 761V510L1039 634L624.5 849.5Z" fill="#C13752"/>
<path d="M753 934L597 1024H863L1122 946L1440 897V760L1021.5 839.5L753 934Z" fill="#B83456"/>
<path d="M1440.5 896.5L1123 944L862 1024H1440.5V896.5Z" fill="#AE315A"/>
</svg>
