<svg width="360" height="640" viewBox="0 0 360 640" fill="none" xmlns="http://www.w3.org/2000/svg">
<path d="M0 0V178.272L18.2662 114.611L25.1727 0H0Z" fill="#B83456"/>
<path d="M66.4748 202.444L0 354.544V177.272L17.2662 114.611L24.1727 0H101.007L66.4748 202.444Z" fill="#C13752"/>
<path d="M73.3813 359.9L0 461.657V353.544L65.4748 202.444L100.007 0H202.014L146.763 184.234L73.3813 359.9Z" fill="#CB3A4E"/>
<path d="M146.763 369.54L303.022 0H201.014L145.763 184.234L72.3813 359.9L0 460.657V580.552L146.763 369.54Z" fill="#D53C49"/>
<path d="M203.014 434.171L40.7122 640H0V580.039L145.763 368.849L303.022 0H360V108.275L203.014 434.171Z" fill="#CB3A4E"/>
<path d="M202.156 434.065L40 640H142.642L246.146 504.855L360 305.355V108L202.156 434.065Z" fill="#C13752"/>
<path d="M245.81 504.712L142 640H251.135L360 473.5V305L245.81 504.712Z" fill="#B83456"/>
<path d="M249.928 640H360V472.368L249.928 640Z" fill="#AE315A"/>
</svg>
